<?xml version="1.0" encoding="utf-8"?>
<!-- Generator: Adobe Illustrator 14.0.0, SVG Export Plug-In . SVG Version: 6.00 Build 43363)  -->
<!DOCTYPE svg PUBLIC "-//W3C//DTD SVG 1.1//EN" "http://www.w3.org/Graphics/SVG/1.1/DTD/svg11.dtd">
<svg version="1.1" id="圖層_1" xmlns="http://www.w3.org/2000/svg" xmlns:xlink="http://www.w3.org/1999/xlink" x="0px" y="0px"
	 width="110.167px" height="102.137px" viewBox="0 0 110.167 102.137" enable-background="new 0 0 110.167 102.137"
	 xml:space="preserve">
<path fill="none" stroke="#FF8861" stroke-width="0.75" stroke-miterlimit="10" d="M85.705,55.768
	c8.058,2.872,13.826,10.582,13.826,19.642c0,4.369-1.342,8.423-3.633,11.773 M89.516,93.236c-3.145,1.913-6.834,3.015-10.779,3.015
	c-8.395,0-15.627-4.983-18.912-12.161 M0,102.137h110.167 M30.955,75.409h21.959 M37.04,75.409c0,3.368-2.725,6.1-6.085,6.1
	c-3.361,0-6.086-2.731-6.086-6.1c0-3.369,2.725-6.099,6.086-6.099C34.315,69.311,37.04,72.04,37.04,75.409z M82.703,75.409
	c0-1.855-1.272-3.4-2.987-3.841v-0.011c0,0-45.587-11.115-46.632-11.268c-0.695-0.101-1.406-0.153-2.129-0.153
	c-8.417,0-15.239,6.838-15.239,15.272s6.822,15.273,15.239,15.273c1.125,0,2.219-0.128,3.272-0.366
	c0.642-0.144,45.489-11.069,45.489-11.069C81.431,78.808,82.703,77.265,82.703,75.409z M92.4,102.137h8.344L75.802,25.198
	l-7.549,2.457L92.4,102.137z M64.844,12.681h17.859L97.785,0 M74.492,25.623l-4.932,1.606l-4.717-14.549h5.452L74.492,25.623z
	 M40.065,61.937l31.082-25.352 M73.777,44.696L49.767,64.277 M18.821,43.967l-4.931,1.604L9.173,31.022h5.452L18.821,43.967z
	 M19.035,65.902l-6.453-19.905l7.549-2.458l5.673,17.503 M28.494,29.579c0,0.798-0.645,1.443-1.44,1.443H1.44
	c-0.795,0-1.44-0.646-1.44-1.443v-2.682c0-0.797,0.645-1.443,1.44-1.443h25.614c0.795,0,1.44,0.646,1.44,1.443V29.579z
	 M59.83,66.719c3.059-6.672,9.529-11.446,17.171-12.078 M20.52,86.534l-9.704,15.603h9.352l7.368-11.845"/>
</svg>
