<?xml version="1.0" encoding="utf-8"?>
<!-- Generator: Adobe Illustrator 14.0.0, SVG Export Plug-In . SVG Version: 6.00 Build 43363)  -->
<!DOCTYPE svg PUBLIC "-//W3C//DTD SVG 1.1//EN" "http://www.w3.org/Graphics/SVG/1.1/DTD/svg11.dtd">
<svg version="1.1" id="圖層_1" xmlns="http://www.w3.org/2000/svg" xmlns:xlink="http://www.w3.org/1999/xlink" x="0px" y="0px"
	 width="81.75px" height="97.75px" viewBox="0 0 81.75 97.75" enable-background="new 0 0 81.75 97.75" xml:space="preserve">
<path fill="none" stroke="#FF8861" stroke-width="0.75" stroke-miterlimit="10" d="M19.127,74.33h8.042 M32.938,74.33h29.689
	 M19.127,65.314h8.042 M32.938,65.314h29.689 M19.127,56.301h8.042 M32.938,56.301h29.689 M19.127,47.287h8.042 M32.938,47.287
	h29.689 M19.127,38.272h8.042 M32.938,38.272h29.689 M44.328,7.182c0,1.802-1.461,3.262-3.262,3.262
	c-1.803,0-3.263-1.46-3.263-3.262s1.46-3.262,3.263-3.262C42.867,3.92,44.328,5.38,44.328,7.182z M48.248,7.182
	C48.248,3.215,45.031,0,41.066,0c-3.967,0-7.183,3.215-7.183,7.182H19.316v17.625h43.5V7.182H48.248z M62.816,19.769h8.154v67.72
	h-59.81v-67.72h8.155 M62.816,11.726h18.315v85.162H1V11.726h18.127"/>
</svg>
